<svg width="866" height="866" viewBox="0 0 866 866" fill="none" xmlns="http://www.w3.org/2000/svg">
<path d="M289.05 284.71V324.48C289.05 324.597 289.004 324.709 288.921 324.791C288.839 324.874 288.727 324.92 288.61 324.92H269.38C269.239 324.92 269.105 324.863 269.005 324.762C268.906 324.661 268.85 324.523 268.85 324.38V305.36C268.85 305.243 268.804 305.131 268.721 305.049C268.639 304.966 268.527 304.92 268.41 304.92H248.59C248.449 304.92 248.315 304.864 248.215 304.765C248.116 304.665 248.06 304.531 248.06 304.39V284.63C248.06 284.471 247.998 284.318 247.887 284.206C247.777 284.093 247.627 284.03 247.47 284.03H228.62C228.458 284.03 228.303 284.094 228.189 284.209C228.074 284.323 228.01 284.478 228.01 284.64V324.08C228.01 324.297 227.924 324.506 227.77 324.66C227.616 324.814 227.408 324.9 227.19 324.9H187.34C187.295 324.9 187.251 324.891 187.21 324.874C187.169 324.857 187.131 324.832 187.1 324.8C187.068 324.769 187.043 324.731 187.026 324.69C187.009 324.649 187 324.605 187 324.56V305.46C187 305.407 187.01 305.355 187.031 305.307C187.051 305.258 187.08 305.214 187.117 305.177C187.154 305.14 187.198 305.111 187.247 305.09C187.296 305.07 187.348 305.06 187.4 305.06H206.68C206.797 305.06 206.909 305.013 206.991 304.928C207.074 304.844 207.12 304.729 207.12 304.61V284.6C207.12 284.467 207.173 284.34 207.266 284.246C207.36 284.153 207.487 284.1 207.62 284.1H227.45C227.607 284.1 227.757 284.038 227.867 283.927C227.978 283.817 228.04 283.666 228.04 283.51V264.4C228.04 264.265 227.986 264.135 227.891 264.039C227.795 263.944 227.665 263.89 227.53 263.89H207.6C207.441 263.89 207.288 263.953 207.176 264.066C207.063 264.178 207 264.331 207 264.49V283.26C207 283.462 206.919 283.655 206.775 283.797C206.63 283.94 206.434 284.02 206.23 284.02H166.62C166.487 284.02 166.36 283.966 166.267 283.871C166.173 283.775 166.12 283.645 166.12 283.51V223.34C166.12 223.21 166.171 223.085 166.261 222.993C166.351 222.902 166.473 222.85 166.6 222.85H186.31C186.48 222.85 186.643 222.784 186.763 222.665C186.883 222.547 186.95 222.387 186.95 222.22V172.81C186.95 172.598 187.033 172.394 187.181 172.244C187.33 172.094 187.531 172.01 187.74 172.01H206.51C206.669 172.01 206.822 171.947 206.934 171.834C207.047 171.722 207.11 171.569 207.11 171.41V151.37C207.11 151.245 207.16 151.126 207.248 151.038C207.336 150.95 207.455 150.9 207.58 150.9H227.33C227.516 150.9 227.694 150.826 227.825 150.695C227.956 150.564 228.03 150.386 228.03 150.2V131.45C228.03 131.309 228.086 131.175 228.185 131.075C228.285 130.976 228.419 130.92 228.56 130.92H247.91C247.96 130.92 248.009 130.901 248.044 130.867C248.08 130.834 248.1 130.788 248.1 130.74V110.64C248.1 110.559 248.116 110.478 248.147 110.403C248.178 110.328 248.224 110.259 248.282 110.202C248.339 110.144 248.408 110.098 248.483 110.067C248.558 110.036 248.639 110.02 248.72 110.02H268.32C268.469 110.02 268.611 109.961 268.716 109.856C268.821 109.751 268.88 109.609 268.88 109.46V90.72C268.88 90.5635 268.942 90.4134 269.053 90.3028C269.164 90.1922 269.314 90.13 269.47 90.13H309.38C309.555 90.13 309.723 90.0594 309.847 89.9338C309.971 89.8081 310.04 89.6377 310.04 89.46V69.57C310.04 69.4938 310.055 69.4184 310.084 69.348C310.113 69.2777 310.156 69.2137 310.21 69.1599C310.264 69.106 310.328 69.0633 310.398 69.0341C310.468 69.005 310.544 68.99 310.62 68.99H370.7C370.806 68.99 370.908 68.9479 370.983 68.8728C371.058 68.7978 371.1 68.6961 371.1 68.59V49.35C371.1 49.2572 371.137 49.1681 371.203 49.1025C371.268 49.0369 371.357 49 371.45 49H493.41C493.481 49 493.551 49.0137 493.617 49.0403C493.682 49.067 493.742 49.106 493.792 49.1552C493.842 49.2044 493.882 49.2629 493.909 49.3272C493.936 49.3915 493.95 49.4604 493.95 49.53V68.58C493.95 68.6781 493.989 68.7722 494.058 68.8416C494.128 68.911 494.222 68.95 494.32 68.95H554.46C554.563 68.95 554.663 68.9921 554.736 69.0672C554.809 69.1422 554.85 69.2439 554.85 69.35V89.29C554.85 89.5022 554.934 89.7057 555.084 89.8557C555.234 90.0057 555.438 90.09 555.65 90.09H595.53C595.655 90.09 595.774 90.1395 595.862 90.2277C595.951 90.3158 596 90.4354 596 90.56V109.47C596 109.541 596.014 109.611 596.041 109.677C596.068 109.742 596.108 109.802 596.158 109.852C596.208 109.902 596.268 109.942 596.333 109.969C596.399 109.996 596.469 110.01 596.54 110.01H636.27C636.429 110.01 636.582 110.072 636.694 110.183C636.807 110.293 636.87 110.444 636.87 110.6V130.32C636.87 130.469 636.928 130.611 637.031 130.716C637.134 130.821 637.274 130.88 637.42 130.88H657.31C657.485 130.88 657.653 130.948 657.777 131.07C657.901 131.192 657.97 131.358 657.97 131.53V150.46C657.97 150.52 657.982 150.58 658.005 150.636C658.028 150.692 658.062 150.743 658.105 150.785C658.148 150.828 658.198 150.862 658.254 150.885C658.31 150.908 658.37 150.92 658.43 150.92H677.44C677.551 150.92 677.658 150.964 677.737 151.043C677.816 151.122 677.86 151.229 677.86 151.34V201.43C677.86 201.6 677.927 201.763 678.047 201.883C678.168 202.003 678.33 202.07 678.5 202.07H698.12C698.266 202.07 698.406 202.128 698.509 202.231C698.612 202.334 698.67 202.474 698.67 202.62V222.56C698.67 222.669 698.712 222.773 698.787 222.85C698.862 222.927 698.964 222.97 699.07 222.97H718.57C718.692 222.97 718.809 223.017 718.895 223.102C718.982 223.186 719.03 223.301 719.03 223.42V304.27C719.03 304.429 718.967 304.582 718.854 304.694C718.742 304.807 718.589 304.87 718.43 304.87H699.33C699.203 304.87 699.081 304.819 698.991 304.729C698.901 304.639 698.85 304.517 698.85 304.39V264.34C698.85 264.213 698.799 264.091 698.709 264.001C698.619 263.911 698.497 263.86 698.37 263.86H678.75C678.572 263.86 678.402 263.79 678.276 263.667C678.151 263.543 678.08 263.375 678.08 263.2V223.62C678.08 223.426 678.003 223.241 677.866 223.104C677.729 222.967 677.544 222.89 677.35 222.89H658.42C658.29 222.89 658.165 222.942 658.074 223.034C657.982 223.125 657.93 223.25 657.93 223.38V242.47C657.93 242.55 657.914 242.629 657.884 242.703C657.853 242.777 657.808 242.845 657.751 242.901C657.695 242.958 657.627 243.003 657.553 243.034C657.479 243.064 657.4 243.08 657.32 243.08H637.37C637.237 243.08 637.11 243.133 637.016 243.226C636.923 243.32 636.87 243.447 636.87 243.58V283.5C636.87 283.656 636.932 283.807 637.043 283.917C637.153 284.028 637.304 284.09 637.46 284.09H657.77C657.826 284.09 657.879 284.112 657.919 284.151C657.958 284.191 657.98 284.244 657.98 284.3V345.41C657.98 345.527 657.934 345.639 657.851 345.721C657.769 345.804 657.657 345.85 657.54 345.85H576.41C576.293 345.85 576.181 345.895 576.099 345.976C576.016 346.057 575.97 346.166 575.97 346.28V365.45C575.97 365.524 575.985 365.596 576.013 365.664C576.041 365.732 576.082 365.794 576.134 365.846C576.186 365.898 576.248 365.939 576.316 365.967C576.384 365.996 576.456 366.01 576.53 366.01H657.47C657.538 366.01 657.606 366.023 657.669 366.05C657.732 366.076 657.789 366.114 657.838 366.162C657.886 366.211 657.924 366.268 657.95 366.331C657.977 366.394 657.99 366.462 657.99 366.53V549.8C657.99 549.897 657.971 549.993 657.934 550.083C657.898 550.173 657.844 550.255 657.776 550.323C657.708 550.392 657.628 550.446 657.539 550.484C657.451 550.521 657.356 550.54 657.26 550.54H637.42C637.274 550.54 637.134 550.598 637.031 550.701C636.928 550.804 636.87 550.944 636.87 551.09V590.48C636.87 590.605 636.821 590.724 636.732 590.812C636.644 590.9 636.525 590.95 636.4 590.95H617.52C617.353 590.95 617.193 591.016 617.075 591.135C616.956 591.253 616.89 591.413 616.89 591.58V631.34C616.89 631.473 616.837 631.6 616.744 631.694C616.65 631.787 616.523 631.84 616.39 631.84H596.21C596.128 631.84 596.049 631.873 595.991 631.931C595.933 631.989 595.9 632.068 595.9 632.15V652.46C595.9 652.582 595.852 652.699 595.765 652.785C595.679 652.872 595.562 652.92 595.44 652.92H576.33C576.277 652.92 576.225 652.93 576.177 652.95C576.128 652.971 576.084 653 576.047 653.037C576.01 653.074 575.981 653.118 575.961 653.167C575.94 653.215 575.93 653.267 575.93 653.32V672.48C575.93 672.594 575.885 672.703 575.804 672.784C575.723 672.865 575.614 672.91 575.5 672.91H555.36C555.251 672.91 555.147 672.867 555.07 672.79C554.993 672.713 554.95 672.609 554.95 672.5V653.33C554.95 653.274 554.939 653.218 554.917 653.165C554.896 653.113 554.864 653.066 554.824 653.026C554.784 652.986 554.737 652.954 554.685 652.933C554.632 652.911 554.576 652.9 554.52 652.9H535.16C535.07 652.9 534.983 652.936 534.92 653C534.856 653.063 534.82 653.15 534.82 653.24V672.42C534.82 672.547 534.769 672.669 534.679 672.759C534.589 672.849 534.467 672.9 534.34 672.9H514.65C514.494 672.9 514.343 672.838 514.233 672.727C514.122 672.617 514.06 672.466 514.06 672.31V653.34C514.06 653.283 514.049 653.228 514.027 653.175C514.006 653.123 513.974 653.076 513.934 653.036C513.894 652.996 513.847 652.964 513.795 652.943C513.742 652.921 513.687 652.91 513.63 652.91H494.32C494.26 652.91 494.2 652.922 494.144 652.945C494.088 652.968 494.037 653.002 493.995 653.045C493.952 653.087 493.918 653.138 493.895 653.194C493.872 653.25 493.86 653.31 493.86 653.37V672.33C493.86 672.486 493.798 672.637 493.687 672.747C493.577 672.858 493.426 672.92 493.27 672.92H474.59C474.399 672.92 474.216 672.996 474.081 673.131C473.946 673.266 473.87 673.449 473.87 673.64V693.31C473.87 693.445 473.816 693.575 473.721 693.671C473.625 693.766 473.495 693.82 473.36 693.82H453.68C453.478 693.82 453.285 693.74 453.143 693.597C453 693.455 452.92 693.262 452.92 693.06V673.55C452.92 673.383 452.853 673.223 452.733 673.104C452.613 672.986 452.45 672.92 452.28 672.92H412.69C412.494 672.92 412.306 672.842 412.167 672.703C412.028 672.564 411.95 672.376 411.95 672.18V653.44C411.95 653.369 411.936 653.299 411.91 653.233C411.883 653.168 411.844 653.108 411.795 653.058C411.746 653.008 411.687 652.968 411.623 652.941C411.559 652.914 411.49 652.9 411.42 652.9H371.53C371.4 652.9 371.275 652.849 371.184 652.759C371.092 652.669 371.04 652.547 371.04 652.42V632.43C371.04 632.281 370.981 632.139 370.876 632.034C370.771 631.929 370.629 631.87 370.48 631.87H351.75C351.575 631.87 351.407 631.799 351.283 631.674C351.16 631.548 351.09 631.378 351.09 631.2V612.77C351.09 612.662 351.069 612.556 351.027 612.456C350.985 612.357 350.924 612.266 350.847 612.19C350.77 612.114 350.678 612.054 350.578 612.012C350.477 611.971 350.369 611.95 350.26 611.95H330.25C330.131 611.95 330.016 611.903 329.932 611.818C329.847 611.734 329.8 611.619 329.8 611.5V591.62C329.8 591.461 329.738 591.308 329.627 591.196C329.517 591.083 329.367 591.02 329.21 591.02H310.71C310.543 591.02 310.383 590.953 310.265 590.833C310.146 590.712 310.08 590.55 310.08 590.38V550.96C310.08 550.835 310.031 550.716 309.942 550.628C309.854 550.539 309.735 550.49 309.61 550.49H289.35C289.308 550.49 289.266 550.499 289.228 550.515C289.189 550.532 289.154 550.556 289.124 550.587C289.094 550.617 289.071 550.654 289.054 550.694C289.038 550.734 289.03 550.777 289.03 550.82V590.44C289.03 590.602 289.093 590.757 289.206 590.871C289.318 590.986 289.471 591.05 289.63 591.05H309.22C309.384 591.05 309.542 591.114 309.658 591.229C309.775 591.343 309.84 591.498 309.84 591.66V631.3C309.84 631.454 309.901 631.601 310.01 631.71C310.119 631.819 310.266 631.88 310.42 631.88H329.05C329.191 631.88 329.325 631.936 329.425 632.035C329.524 632.135 329.58 632.269 329.58 632.41V652.17C329.58 652.361 329.655 652.544 329.788 652.679C329.921 652.814 330.102 652.89 330.29 652.89H349.46C349.569 652.89 349.673 652.933 349.75 653.01C349.827 653.087 349.87 653.191 349.87 653.3V672.37C349.87 672.54 349.937 672.702 350.058 672.823C350.178 672.943 350.34 673.01 350.51 673.01H391.46C391.582 673.01 391.699 673.058 391.785 673.145C391.872 673.231 391.92 673.348 391.92 673.47V692.6C391.92 692.934 392.053 693.255 392.289 693.491C392.525 693.727 392.846 693.86 393.18 693.86H431.76C431.866 693.86 431.968 693.902 432.043 693.977C432.118 694.052 432.16 694.154 432.16 694.26V713.5C432.16 713.664 432.225 713.822 432.342 713.938C432.458 714.055 432.616 714.12 432.78 714.12H473.3C473.438 714.12 473.57 714.174 473.668 714.269C473.765 714.365 473.82 714.495 473.82 714.63V775.24C473.82 775.415 473.89 775.583 474.013 775.707C474.137 775.83 474.305 775.9 474.48 775.9H493.2C493.37 775.9 493.533 775.967 493.653 776.087C493.773 776.207 493.84 776.37 493.84 776.54V795.5C493.84 795.635 493.786 795.765 493.691 795.861C493.595 795.956 493.465 796.01 493.33 796.01H474.76C474.492 796.01 474.235 795.903 474.046 795.711C473.856 795.52 473.75 795.261 473.75 794.99V776.46C473.75 776.303 473.688 776.153 473.577 776.043C473.467 775.932 473.317 775.87 473.16 775.87H351.54C351.378 775.87 351.223 775.806 351.109 775.691C350.994 775.577 350.93 775.422 350.93 775.26V755.45C350.93 755.325 350.881 755.206 350.792 755.118C350.704 755.03 350.585 754.98 350.46 754.98H310.32C310.246 754.98 310.175 754.951 310.122 754.898C310.07 754.846 310.04 754.774 310.04 754.7V735.52C310.04 735.356 309.975 735.198 309.858 735.082C309.742 734.965 309.584 734.9 309.42 734.9H269.21C269.104 734.9 269.002 734.858 268.927 734.783C268.852 734.708 268.81 734.606 268.81 734.5V714.42C268.81 714.298 268.762 714.181 268.675 714.095C268.589 714.008 268.472 713.96 268.35 713.96H249.07C248.935 713.96 248.801 713.933 248.676 713.881C248.551 713.829 248.437 713.752 248.342 713.655C248.246 713.559 248.17 713.444 248.118 713.318C248.067 713.192 248.04 713.057 248.04 712.92V673.86C248.04 673.656 248.121 673.46 248.266 673.315C248.41 673.171 248.606 673.09 248.81 673.09H268.45C268.559 673.09 268.663 673.047 268.74 672.97C268.817 672.893 268.86 672.789 268.86 672.68V530.56C268.86 530.393 268.793 530.233 268.673 530.115C268.553 529.996 268.39 529.93 268.22 529.93H207.39C207.351 529.93 207.312 529.922 207.275 529.907C207.239 529.892 207.206 529.87 207.178 529.842C207.15 529.814 207.128 529.781 207.113 529.745C207.098 529.708 207.09 529.669 207.09 529.63V509.64C207.09 509.574 207.077 509.509 207.053 509.449C207.028 509.388 206.992 509.333 206.947 509.286C206.901 509.24 206.847 509.203 206.788 509.178C206.728 509.153 206.664 509.14 206.6 509.14H187.71C187.495 509.14 187.289 509.055 187.137 508.903C186.985 508.751 186.9 508.545 186.9 508.33V428.25C186.9 428.157 186.863 428.068 186.798 428.003C186.732 427.937 186.643 427.9 186.55 427.9H166.72C166.545 427.9 166.377 427.831 166.253 427.71C166.13 427.588 166.06 427.422 166.06 427.25V387.65C166.06 387.467 166.133 387.291 166.262 387.162C166.392 387.033 166.567 386.96 166.75 386.96H186.14C186.304 386.96 186.462 387.025 186.578 387.142C186.695 387.258 186.76 387.416 186.76 387.58V427.39C186.76 427.56 186.827 427.723 186.948 427.843C187.068 427.963 187.23 428.03 187.4 428.03H247.46C247.595 428.03 247.725 428.085 247.821 428.182C247.916 428.28 247.97 428.412 247.97 428.55V447.2C247.97 447.404 248.05 447.6 248.193 447.744C248.335 447.889 248.528 447.97 248.73 447.97H268.44C268.493 447.97 268.545 447.98 268.593 448C268.642 448.021 268.686 448.05 268.723 448.087C268.76 448.124 268.79 448.168 268.81 448.217C268.83 448.265 268.84 448.317 268.84 448.37V468.17C268.84 468.337 268.905 468.497 269.022 468.615C269.138 468.734 269.296 468.8 269.46 468.8H288.64C288.743 468.8 288.843 468.759 288.916 468.686C288.989 468.613 289.03 468.513 289.03 468.41V387.5C289.03 387.357 289.086 387.219 289.185 387.118C289.285 387.017 289.419 386.96 289.56 386.96H309.56C309.701 386.96 309.835 386.904 309.935 386.805C310.034 386.705 310.09 386.571 310.09 386.43V346.71C310.09 346.551 310.154 346.398 310.269 346.286C310.383 346.173 310.538 346.11 310.7 346.11H328.99C329.208 346.11 329.416 346.025 329.57 345.873C329.724 345.721 329.81 345.515 329.81 345.3V305.65C329.81 305.57 329.826 305.491 329.856 305.417C329.886 305.343 329.93 305.275 329.986 305.219C330.042 305.162 330.108 305.117 330.18 305.086C330.253 305.056 330.331 305.04 330.41 305.04H350.44C350.604 305.04 350.762 304.975 350.878 304.858C350.995 304.742 351.06 304.584 351.06 304.42V284.63C351.06 284.492 351.114 284.36 351.209 284.262C351.305 284.165 351.435 284.11 351.57 284.11H370.64C370.773 284.11 370.9 284.057 370.994 283.964C371.087 283.87 371.14 283.743 371.14 283.61V264.57C371.14 264.403 371.207 264.243 371.327 264.125C371.448 264.006 371.61 263.94 371.78 263.94H391.37C391.519 263.94 391.661 263.999 391.766 264.104C391.871 264.209 391.93 264.351 391.93 264.5V283.75C391.93 283.848 391.969 283.942 392.038 284.012C392.108 284.081 392.202 284.12 392.3 284.12H411.59C411.693 284.12 411.793 284.079 411.866 284.006C411.939 283.933 411.98 283.833 411.98 283.73V264.32C411.98 264.209 412.024 264.102 412.103 264.023C412.182 263.944 412.289 263.9 412.4 263.9H431.59C431.72 263.9 431.845 263.847 431.937 263.754C432.028 263.66 432.08 263.533 432.08 263.4V243.52C432.08 243.393 432.132 243.271 432.224 243.181C432.315 243.091 432.44 243.04 432.57 243.04H452.43C452.576 243.04 452.716 243.098 452.819 243.201C452.922 243.304 452.98 243.444 452.98 243.59V263.34C452.98 263.499 453.043 263.652 453.156 263.764C453.268 263.877 453.421 263.94 453.58 263.94H472.3C472.475 263.94 472.643 263.872 472.767 263.75C472.89 263.628 472.96 263.462 472.96 263.29V243.6C472.96 243.443 473.021 243.293 473.13 243.183C473.239 243.072 473.386 243.01 473.54 243.01H513.88C513.962 243.01 514.041 242.978 514.099 242.922C514.157 242.866 514.19 242.79 514.19 242.71V223.31C514.19 223.209 514.229 223.113 514.298 223.041C514.368 222.97 514.462 222.93 514.56 222.93H534.41C534.516 222.93 534.618 222.972 534.693 223.047C534.768 223.122 534.81 223.224 534.81 223.33V263.33C534.81 263.486 534.872 263.637 534.983 263.747C535.093 263.858 535.244 263.92 535.4 263.92H575.77C575.873 263.92 575.973 263.879 576.046 263.806C576.119 263.733 576.16 263.633 576.16 263.53V243.58C576.16 243.434 576.218 243.294 576.321 243.191C576.424 243.088 576.564 243.03 576.71 243.03H595.4C595.564 243.03 595.722 242.965 595.838 242.848C595.955 242.732 596.02 242.574 596.02 242.41V223.54C596.02 223.461 596.036 223.383 596.066 223.31C596.096 223.238 596.14 223.171 596.196 223.116C596.252 223.06 596.318 223.016 596.39 222.986C596.463 222.956 596.541 222.94 596.62 222.94H616.29C616.364 222.94 616.436 222.955 616.504 222.983C616.572 223.012 616.634 223.054 616.686 223.107C616.738 223.16 616.779 223.223 616.807 223.292C616.836 223.361 616.85 223.435 616.85 223.51V242.35C616.85 242.501 616.91 242.646 617.017 242.753C617.124 242.86 617.269 242.92 617.42 242.92H636.38C636.518 242.92 636.65 242.865 636.748 242.768C636.845 242.67 636.9 242.538 636.9 242.4V202.7C636.9 202.536 636.964 202.378 637.079 202.262C637.193 202.145 637.348 202.08 637.51 202.08H657.63C657.701 202.08 657.771 202.066 657.837 202.039C657.902 202.012 657.962 201.972 658.012 201.922C658.062 201.872 658.102 201.812 658.129 201.747C658.156 201.681 658.17 201.611 658.17 201.54V182.36C658.17 182.3 658.158 182.24 658.135 182.184C658.112 182.128 658.078 182.077 658.035 182.035C657.993 181.992 657.942 181.958 657.886 181.935C657.83 181.912 657.77 181.9 657.71 181.9H637.34C637.277 181.9 637.215 181.912 637.156 181.937C637.098 181.961 637.045 181.996 637.001 182.041C636.956 182.085 636.921 182.138 636.897 182.196C636.872 182.255 636.86 182.317 636.86 182.38V201.5C636.86 201.622 636.812 201.739 636.725 201.825C636.639 201.912 636.522 201.96 636.4 201.96H596.56C596.492 201.96 596.424 201.947 596.361 201.92C596.298 201.894 596.241 201.856 596.192 201.808C596.144 201.759 596.106 201.702 596.08 201.639C596.054 201.576 596.04 201.508 596.04 201.44V182.54C596.04 182.362 596.112 182.192 596.239 182.066C596.367 181.941 596.54 181.87 596.72 181.87H616.57C616.692 181.87 616.809 181.822 616.895 181.735C616.982 181.649 617.03 181.532 617.03 181.41V161.66C617.03 161.525 616.976 161.395 616.881 161.299C616.785 161.204 616.655 161.15 616.52 161.15H596.68C596.497 161.15 596.322 161.223 596.192 161.352C596.063 161.481 595.99 161.657 595.99 161.84V181.45C595.99 181.559 595.947 181.663 595.87 181.74C595.793 181.817 595.689 181.86 595.58 181.86H576.29C576.187 181.86 576.087 181.901 576.014 181.974C575.941 182.047 575.9 182.147 575.9 182.25V222.43C575.9 222.494 575.887 222.558 575.863 222.617C575.838 222.677 575.802 222.731 575.757 222.776C575.711 222.822 575.657 222.858 575.598 222.883C575.538 222.907 575.474 222.92 575.41 222.92H555.48C555.334 222.92 555.194 222.862 555.091 222.759C554.988 222.656 554.93 222.516 554.93 222.37V182.46C554.93 182.384 554.915 182.308 554.885 182.238C554.855 182.168 554.812 182.104 554.757 182.05C554.702 181.996 554.637 181.953 554.566 181.924C554.494 181.895 554.418 181.88 554.34 181.88H535.44C535.276 181.88 535.118 181.945 535.002 182.062C534.885 182.178 534.82 182.336 534.82 182.5V201.37C534.82 201.449 534.804 201.527 534.774 201.6C534.743 201.672 534.698 201.739 534.641 201.794C534.585 201.85 534.517 201.894 534.443 201.924C534.369 201.954 534.29 201.97 534.21 201.97H494.94C494.701 201.97 494.472 202.065 494.304 202.234C494.135 202.402 494.04 202.631 494.04 202.87V222.31C494.04 222.472 493.975 222.627 493.858 222.741C493.742 222.856 493.584 222.92 493.42 222.92H473.58C473.408 222.92 473.242 222.853 473.12 222.733C472.999 222.613 472.93 222.45 472.93 222.28V202.79C472.93 202.672 472.907 202.555 472.862 202.446C472.816 202.336 472.75 202.237 472.666 202.154C472.583 202.07 472.484 202.004 472.374 201.958C472.265 201.913 472.148 201.89 472.03 201.89H453.62C453.44 201.89 453.267 201.818 453.139 201.691C453.012 201.563 452.94 201.39 452.94 201.21V182.49C452.94 182.326 452.876 182.168 452.761 182.052C452.647 181.935 452.492 181.87 452.33 181.87H432.83C432.618 181.87 432.414 181.955 432.264 182.107C432.114 182.259 432.03 182.465 432.03 182.68V222.43C432.03 222.493 432.018 222.555 431.994 222.614C431.969 222.672 431.934 222.725 431.889 222.769C431.845 222.814 431.792 222.849 431.734 222.873C431.676 222.898 431.613 222.91 431.55 222.91H412.24C412.134 222.91 412.032 222.952 411.957 223.027C411.882 223.102 411.84 223.204 411.84 223.31V242.55C411.84 242.699 411.781 242.841 411.676 242.946C411.571 243.051 411.429 243.11 411.28 243.11H392.69C392.595 243.11 392.502 243.091 392.415 243.055C392.327 243.019 392.248 242.966 392.181 242.899C392.114 242.832 392.061 242.753 392.025 242.666C391.989 242.578 391.97 242.485 391.97 242.39V223.77C391.97 223.531 391.874 223.302 391.704 223.134C391.533 222.965 391.301 222.87 391.06 222.87H351.59C351.522 222.87 351.454 222.856 351.391 222.83C351.328 222.803 351.271 222.764 351.222 222.715C351.174 222.666 351.136 222.607 351.11 222.543C351.084 222.479 351.07 222.41 351.07 222.34V202.37C351.07 202.256 351.024 202.147 350.941 202.066C350.859 201.985 350.747 201.94 350.63 201.94H330.23C330.113 201.94 330.001 201.985 329.919 202.066C329.836 202.147 329.79 202.256 329.79 202.37V222.51C329.79 222.624 329.835 222.733 329.916 222.814C329.997 222.895 330.106 222.94 330.22 222.94H350.13C350.374 222.94 350.608 223.038 350.781 223.212C350.953 223.387 351.05 223.623 351.05 223.87V242.4C351.05 242.586 350.976 242.764 350.845 242.895C350.714 243.026 350.536 243.1 350.35 243.1H330.36C330.214 243.1 330.074 243.158 329.971 243.261C329.868 243.364 329.81 243.504 329.81 243.65V263.33C329.81 263.471 329.755 263.605 329.658 263.705C329.56 263.804 329.428 263.86 329.29 263.86H310.31C310.188 263.86 310.071 263.908 309.985 263.995C309.899 264.081 309.85 264.198 309.85 264.32V283.48C309.85 283.629 309.792 283.771 309.689 283.876C309.586 283.981 309.446 284.04 309.3 284.04H289.64C289.544 284.04 289.449 284.021 289.361 283.984C289.272 283.946 289.192 283.892 289.124 283.823C289.056 283.755 289.002 283.673 288.966 283.583C288.929 283.493 288.91 283.397 288.91 283.3V264.59C288.91 264.402 288.834 264.221 288.699 264.088C288.564 263.955 288.381 263.88 288.19 263.88H269.44C269.299 263.88 269.165 263.935 269.065 264.032C268.966 264.13 268.91 264.262 268.91 264.4V283.52C268.91 283.669 268.969 283.811 269.074 283.916C269.179 284.021 269.322 284.08 269.47 284.08H288.42C288.503 284.08 288.585 284.096 288.661 284.128C288.738 284.16 288.807 284.206 288.866 284.265C288.924 284.323 288.97 284.392 289.002 284.469C289.034 284.545 289.05 284.627 289.05 284.71ZM514.267 161.718C514.267 161.64 514.252 161.563 514.223 161.492C514.193 161.42 514.15 161.355 514.095 161.3C514.04 161.245 513.975 161.202 513.904 161.172C513.832 161.142 513.756 161.127 513.678 161.127L494.598 161.093C494.442 161.093 494.291 161.155 494.181 161.265C494.07 161.376 494.007 161.526 494.007 161.682L493.973 181.282C493.973 181.36 493.988 181.437 494.017 181.508C494.047 181.58 494.09 181.645 494.145 181.7C494.2 181.755 494.265 181.798 494.336 181.828C494.408 181.858 494.484 181.873 494.562 181.873L513.642 181.907C513.798 181.907 513.949 181.845 514.059 181.735C514.17 181.624 514.233 181.474 514.233 181.318L514.267 161.718ZM227.987 223.298C227.987 223.243 227.976 223.189 227.955 223.138C227.934 223.087 227.903 223.04 227.864 223.001C227.825 222.962 227.779 222.931 227.728 222.91C227.677 222.889 227.623 222.878 227.568 222.878L207.408 222.842C207.353 222.842 207.298 222.853 207.247 222.874C207.196 222.895 207.15 222.926 207.11 222.965C207.071 223.004 207.04 223.05 207.019 223.101C206.998 223.152 206.987 223.207 206.987 223.262L206.953 242.622C206.953 242.677 206.964 242.731 206.985 242.782C207.006 242.833 207.037 242.88 207.076 242.919C207.115 242.958 207.161 242.989 207.212 243.01C207.263 243.031 207.317 243.042 207.372 243.042L227.532 243.078C227.588 243.078 227.642 243.067 227.693 243.046C227.744 243.025 227.791 242.994 227.83 242.955C227.869 242.916 227.9 242.87 227.921 242.819C227.942 242.768 227.953 242.713 227.953 242.658L227.987 223.298ZM472.99 346.42C472.99 346.266 472.929 346.119 472.82 346.01C472.711 345.901 472.564 345.84 472.41 345.84H392.47C392.316 345.84 392.169 345.901 392.06 346.01C391.951 346.119 391.89 346.266 391.89 346.42V365.44C391.89 365.594 391.951 365.741 392.06 365.85C392.169 365.959 392.316 366.02 392.47 366.02H472.41C472.564 366.02 472.711 365.959 472.82 365.85C472.929 365.741 472.99 365.594 472.99 365.44V346.42ZM452.92 387.47C452.92 387.316 452.859 387.169 452.75 387.06C452.641 386.951 452.494 386.89 452.34 386.89H432.64C432.486 386.89 432.339 386.951 432.23 387.06C432.121 387.169 432.06 387.316 432.06 387.47V427.49C432.06 427.644 432.121 427.791 432.23 427.9C432.339 428.009 432.486 428.07 432.64 428.07H452.34C452.494 428.07 452.641 428.009 452.75 427.9C452.859 427.791 452.92 427.644 452.92 427.49V387.47ZM617.01 387.47C617.01 387.311 616.947 387.158 616.834 387.046C616.722 386.933 616.569 386.87 616.41 386.87H596.51C596.351 386.87 596.198 386.933 596.086 387.046C595.973 387.158 595.91 387.311 595.91 387.47V427.49C595.91 427.649 595.973 427.802 596.086 427.914C596.198 428.027 596.351 428.09 596.51 428.09H616.41C616.569 428.09 616.722 428.027 616.834 427.914C616.947 427.802 617.01 427.649 617.01 427.49V387.47ZM576.64 468.81C576.505 468.81 576.375 468.756 576.279 468.661C576.184 468.565 576.13 468.435 576.13 468.3V428.45C576.13 428.315 576.076 428.185 575.981 428.089C575.885 427.994 575.755 427.94 575.62 427.94H555.29C555.155 427.94 555.025 427.994 554.929 428.089C554.834 428.185 554.78 428.315 554.78 428.45V468.28C554.78 468.415 554.834 468.545 554.929 468.641C555.025 468.736 555.155 468.79 555.29 468.79H575.39C575.525 468.79 575.655 468.844 575.751 468.939C575.846 469.035 575.9 469.165 575.9 469.3V508.62C575.9 508.755 575.846 508.885 575.751 508.981C575.655 509.076 575.525 509.13 575.39 509.13H535.36C535.225 509.13 535.095 509.184 534.999 509.279C534.904 509.375 534.85 509.505 534.85 509.64V529.57C534.85 529.705 534.904 529.835 534.999 529.931C535.095 530.026 535.225 530.08 535.36 530.08H575.65C575.785 530.08 575.915 530.026 576.011 529.931C576.106 529.835 576.16 529.705 576.16 529.57V509.66C576.16 509.525 576.214 509.395 576.309 509.299C576.405 509.204 576.535 509.15 576.67 509.15H595.4C595.535 509.15 595.665 509.096 595.761 509.001C595.856 508.905 595.91 508.775 595.91 508.64V469.32C595.91 469.185 595.856 469.055 595.761 468.959C595.665 468.864 595.535 468.81 595.4 468.81H576.64ZM207.01 468.22C207.01 468.371 207.07 468.516 207.177 468.623C207.284 468.73 207.429 468.79 207.58 468.79H227.38C227.455 468.79 227.529 468.805 227.598 468.833C227.667 468.862 227.73 468.904 227.783 468.957C227.836 469.01 227.878 469.073 227.907 469.142C227.935 469.211 227.95 469.285 227.95 469.36V508.6C227.95 508.751 228.01 508.896 228.117 509.003C228.224 509.11 228.369 509.17 228.52 509.17H247.37C247.521 509.17 247.666 509.11 247.773 509.003C247.88 508.896 247.94 508.751 247.94 508.6V469.37C247.94 469.295 247.925 469.221 247.897 469.152C247.868 469.083 247.826 469.02 247.773 468.967C247.72 468.914 247.657 468.872 247.588 468.843C247.519 468.815 247.445 468.8 247.37 468.8H228.6C228.449 468.8 228.304 468.74 228.197 468.633C228.09 468.526 228.03 468.381 228.03 468.23V448.59C228.03 448.515 228.015 448.441 227.987 448.372C227.958 448.303 227.916 448.24 227.863 448.187C227.81 448.134 227.747 448.092 227.678 448.063C227.609 448.035 227.535 448.02 227.46 448.02H207.58C207.505 448.02 207.431 448.035 207.362 448.063C207.293 448.092 207.23 448.134 207.177 448.187C207.124 448.24 207.082 448.303 207.053 448.372C207.025 448.441 207.01 448.515 207.01 448.59V468.22ZM576.11 571.56C576.11 571.401 576.047 571.248 575.934 571.136C575.822 571.023 575.669 570.96 575.51 570.96H474.41C474.251 570.96 474.098 571.023 473.986 571.136C473.873 571.248 473.81 571.401 473.81 571.56V590.46C473.81 590.619 473.873 590.772 473.986 590.884C474.098 590.997 474.251 591.06 474.41 591.06H575.51C575.669 591.06 575.822 590.997 575.934 590.884C576.047 590.772 576.11 590.619 576.11 590.46V571.56ZM555.03 612.76C555.03 612.553 554.948 612.355 554.802 612.208C554.655 612.062 554.457 611.98 554.25 611.98H514.71C514.503 611.98 514.305 612.062 514.159 612.208C514.012 612.355 513.93 612.553 513.93 612.76V631.14C513.93 631.347 514.012 631.545 514.159 631.692C514.305 631.838 514.503 631.92 514.71 631.92H554.25C554.457 631.92 554.655 631.838 554.802 631.692C554.948 631.545 555.03 631.347 555.03 631.14V612.76Z" fill="white"/>
<path d="M165.62 284.11H146.34C146.169 284.11 146.03 284.249 146.03 284.42V386.6C146.03 386.772 146.169 386.91 146.34 386.91H165.62C165.791 386.91 165.93 386.772 165.93 386.6V284.42C165.93 284.249 165.791 284.11 165.62 284.11Z" fill="white"/>
<path d="M697.98 304.96H678.74C678.359 304.96 678.05 305.269 678.05 305.65V570.23C678.05 570.611 678.359 570.92 678.74 570.92H697.98C698.361 570.92 698.67 570.611 698.67 570.23V305.65C698.67 305.269 698.361 304.96 697.98 304.96Z" fill="white"/>
<path d="M165.54 509.13H146.5C146.367 509.13 146.24 509.078 146.146 508.984C146.053 508.89 146 508.763 146 508.63V428.57C146 428.438 146.053 428.311 146.146 428.217C146.24 428.123 146.367 428.07 146.5 428.07H165.43C165.563 428.07 165.69 428.123 165.784 428.217C165.877 428.311 165.93 428.438 165.93 428.57V508.64C165.93 508.773 165.983 508.9 166.076 508.994C166.17 509.088 166.297 509.14 166.43 509.14H186.22C186.353 509.14 186.48 509.193 186.574 509.287C186.667 509.381 186.72 509.508 186.72 509.64V529.45C186.72 529.583 186.667 529.71 186.574 529.804C186.48 529.898 186.353 529.95 186.22 529.95H166.54C166.407 529.95 166.28 529.898 166.186 529.804C166.093 529.71 166.04 529.583 166.04 529.45V509.63C166.04 509.498 165.987 509.371 165.894 509.277C165.8 509.183 165.673 509.13 165.54 509.13Z" fill="white"/>
<path d="M206.71 530.2H187.29C187.097 530.2 186.94 530.357 186.94 530.55V549.97C186.94 550.163 187.097 550.32 187.29 550.32H206.71C206.903 550.32 207.06 550.163 207.06 549.97V530.55C207.06 530.357 206.903 530.2 206.71 530.2Z" fill="white"/>
<path d="M227.5 550.36H207.58C207.315 550.36 207.1 550.575 207.1 550.84V590.56C207.1 590.825 207.315 591.04 207.58 591.04H227.5C227.765 591.04 227.98 590.825 227.98 590.56V550.84C227.98 550.575 227.765 550.36 227.5 550.36Z" fill="white"/>
<path d="M677.074 570.954L658.774 570.986C658.349 570.987 658.005 571.332 658.006 571.757L658.075 611.217C658.075 611.642 658.421 611.987 658.846 611.986L677.146 611.954C677.571 611.953 677.915 611.608 677.915 611.183L677.846 571.723C677.845 571.297 677.5 570.953 677.074 570.954Z" fill="white"/>
<path d="M247.44 591.04H228.44C228.169 591.04 227.95 591.259 227.95 591.53V672.41C227.95 672.681 228.169 672.9 228.44 672.9H247.44C247.711 672.9 247.93 672.681 247.93 672.41V591.53C247.93 591.259 247.711 591.04 247.44 591.04Z" fill="white"/>
<path d="M636.82 652.331V612.481C636.82 612.335 636.878 612.195 636.981 612.092C637.084 611.989 637.224 611.931 637.37 611.931H657.38C657.526 611.931 657.666 611.989 657.769 612.092C657.872 612.195 657.93 612.335 657.93 612.481V652.421C657.93 652.567 657.872 652.706 657.769 652.81C657.666 652.913 657.526 652.971 657.38 652.971H637.41C637.264 652.971 637.124 653.029 637.021 653.132C636.918 653.235 636.86 653.375 636.86 653.521V672.381C636.86 672.453 636.846 672.524 636.818 672.591C636.79 672.658 636.75 672.719 636.699 672.77C636.648 672.821 636.587 672.861 636.52 672.889C636.454 672.916 636.382 672.931 636.31 672.931H617.47C617.398 672.931 617.326 672.916 617.259 672.889C617.193 672.861 617.132 672.821 617.081 672.77C617.03 672.719 616.989 672.658 616.962 672.591C616.934 672.524 616.92 672.453 616.92 672.381V653.431C616.92 653.285 616.978 653.145 617.081 653.042C617.184 652.939 617.324 652.881 617.47 652.881H636.27C636.416 652.881 636.556 652.823 636.659 652.72C636.762 652.616 636.82 652.477 636.82 652.331Z" fill="white"/>
<path d="M227.42 672.98H207.62C207.322 672.98 207.08 673.222 207.08 673.521V734.4C207.08 734.699 207.322 734.94 207.62 734.94H227.42C227.718 734.94 227.96 734.699 227.96 734.4V673.521C227.96 673.222 227.718 672.98 227.42 672.98Z" fill="white"/>
<path d="M616.62 673.18C616.76 673.327 616.83 673.51 616.83 673.73C616.803 680.99 616.827 687.557 616.9 693.43C616.9 693.555 616.85 693.674 616.762 693.762C616.674 693.85 616.555 693.9 616.43 693.9H596.3C596.204 693.9 596.113 693.938 596.045 694.005C595.978 694.073 595.94 694.165 595.94 694.26V713.63C595.94 713.704 595.91 713.775 595.858 713.828C595.805 713.881 595.734 713.91 595.66 713.91C591.567 713.903 585.26 713.91 576.74 713.93C576.553 713.93 576.38 713.85 576.22 713.69C576.06 713.537 575.98 713.367 575.98 713.18C575.98 704.66 575.97 698.353 575.95 694.26C575.949 694.222 575.955 694.185 575.968 694.15C575.982 694.115 576.002 694.083 576.028 694.055C576.054 694.028 576.086 694.007 576.12 693.992C576.155 693.978 576.192 693.97 576.23 693.97L595.6 693.92C595.695 693.92 595.787 693.882 595.854 693.815C595.922 693.747 595.96 693.655 595.96 693.56L595.9 673.43C595.9 673.305 595.949 673.186 596.038 673.098C596.126 673.01 596.245 672.96 596.37 672.96C602.243 673.013 608.81 673.017 616.07 672.97C616.29 672.97 616.473 673.04 616.62 673.18Z" fill="white"/>
<path d="M575.85 714.62V734.42C575.85 734.55 575.798 734.674 575.707 734.766C575.615 734.858 575.49 734.91 575.36 734.91H514.4C514.27 734.91 514.146 734.962 514.054 735.053C513.962 735.145 513.91 735.27 513.91 735.4V775.4C513.91 775.53 513.858 775.654 513.767 775.746C513.675 775.838 513.55 775.89 513.42 775.89H494.36C494.23 775.89 494.106 775.838 494.014 775.746C493.922 775.654 493.87 775.53 493.87 775.4V714.62C493.87 714.49 493.922 714.365 494.014 714.273C494.106 714.181 494.23 714.13 494.36 714.13H575.36C575.49 714.13 575.615 714.181 575.707 714.273C575.798 714.365 575.85 714.49 575.85 714.62Z" fill="white"/>
<path d="M247.343 734.984L228.483 735.017C228.162 735.017 227.903 735.277 227.904 735.598L227.937 754.458C227.937 754.778 228.197 755.037 228.518 755.037L247.377 755.004C247.698 755.003 247.957 754.743 247.956 754.423L247.924 735.563C247.923 735.242 247.663 734.983 247.343 734.984Z" fill="white"/>
<path d="M288.204 754.972L248.544 755.11C248.174 755.111 247.875 755.412 247.876 755.782L247.944 775.282C247.945 775.652 248.246 775.951 248.617 775.95L288.276 775.811C288.646 775.81 288.945 775.509 288.944 775.139L288.876 755.639C288.875 755.269 288.574 754.97 288.204 754.972Z" fill="white"/>
<path d="M349.89 816.34V796.52C349.89 796.366 349.829 796.219 349.72 796.11C349.611 796.001 349.464 795.94 349.31 795.94H289.46C289.384 795.94 289.308 795.925 289.238 795.896C289.168 795.867 289.104 795.824 289.05 795.77C288.996 795.716 288.953 795.653 288.924 795.582C288.895 795.512 288.88 795.436 288.88 795.36V776.49C288.88 776.414 288.895 776.339 288.924 776.268C288.953 776.198 288.996 776.134 289.05 776.08C289.104 776.026 289.168 775.983 289.238 775.954C289.308 775.925 289.384 775.91 289.46 775.91H349.37C349.446 775.91 349.521 775.925 349.592 775.954C349.662 775.983 349.726 776.026 349.78 776.08C349.834 776.134 349.877 776.198 349.906 776.268C349.935 776.339 349.95 776.414 349.95 776.49V795.46C349.95 795.614 350.011 795.762 350.12 795.87C350.229 795.979 350.376 796.04 350.53 796.04H473.27C473.424 796.04 473.571 796.101 473.68 796.21C473.789 796.319 473.85 796.466 473.85 796.62V816.34C473.85 816.494 473.789 816.642 473.68 816.75C473.571 816.859 473.424 816.92 473.27 816.92H350.47C350.316 816.92 350.169 816.859 350.06 816.75C349.951 816.642 349.89 816.494 349.89 816.34Z" fill="white"/>
</svg>
